:version 1.10
:name ASF
:units
  mass 1
  length 1
  angle deg
:documentation
  ASF file generated by Kaydara
:root
  axis xyz
  order  tx ty tz rx ry rz
  position 0 0 0
  orientation 0 0 0
:bonedata
  begin
    id 1
    name RightUpLegDummy
    direction -1 2.30186e-007 8.31532e-007
    length 4.04083
    axis 0 0 0 xyz
  end
  begin
    id 2
    name RightUpLeg
    direction -0.000919234 -0.999985 0.00544864
    length 17.4221
    axis -3.80308 -0.00076134 -0.0523649 xyz
    dof rx ry rz
  end
  begin
    id 3
    name RightLeg
    direction -0.000919271 -0.999984 -0.00555045
    length 17.1239
    axis 4.00314 0.0181274 -0.183583 xyz
    dof rx ry rz
  end
  begin
    id 4
    name RightFoot
    direction -2.57843e-005 -4.04509e-007 1
    length 6.72091
    axis 8.18909e-005 -0.122003 -0.403008 xyz
    dof rx ry rz
  end
  begin
    id 5
    name RightToes
    direction 0.00116825 -0.014069 0.9999
    length 3.85082
    axis 0.000514414 0.540638 -0.356797 xyz
    dof rx ry rz
  end
  begin
    id 6
    name SpineDummy
    direction 0.0168869 0.966876 -0.254689
    length 6.99894
    axis 0 0 0 xyz
  end
  begin
    id 7
    name Spine
    direction -0.0132008 0.999903 0.00446247
    length 11.1999
    axis -0.00148109 0.00725429 0.756411 xyz
    dof rx ry rz
  end
  begin
    id 8
    name Spine1
    direction 0 0 0
    length 0
    axis -0.000934958 0.0245693 1.46543 xyz
    dof rx ry rz
  end
  begin
    id 9
    name HEadDummy
    direction -0.0255732 0.999672 0.00128215
    length 3.43865
    axis -0.000934958 0.0245693 1.46543 xyz
  end
  begin
    id 10
    name HEad
    direction -0.0472656 0.980052 0.19304
    length 5.12695
    axis -0.000934954 0.0245693 1.46543 xyz
    dof rx ry rz
  end
  begin
    id 11
    name LeftShoulder1Dummy
    direction 0.953098 0.301717 -0.023914
    length 3.68488
    axis -0.000934958 0.0245693 1.46543 xyz
  end
  begin
    id 12
    name LeftShoulder1
    direction 0.962466 0.271167 0.0112566
    length 3.13809
    axis -0.000934958 0.0245693 1.46543 xyz
    dof rx ry rz
  end
  begin
    id 13
    name LeftArm
    direction 0.999943 0.00455037 -0.00961766
    length 11.3419
    axis -23.1648 0.685459 1.22814 xyz
    dof rx ry rz
  end
  begin
    id 14
    name LeftForeArm
    direction 0.999332 0.0131969 0.0340885
    length 8.70632
    axis -9.90633 0.618216 0.0826942 xyz
    dof rx ry rz
  end
  begin
    id 15
    name LeftHand
    direction 0.994373 -0.0366703 0.0993905
    length 5.32135
    axis 0.00675269 0.680415 0.445699 xyz
    dof rx ry rz
  end
  begin
    id 16
    name RightShoulderDummy
    direction -0.967298 0.252589 -0.0230903
    length 3.68488
    axis -0.000934958 0.0245693 1.46543 xyz
  end
  begin
    id 17
    name RightShoulder
    direction -0.975062 0.221602 0.0120823
    length 3.13809
    axis 0.216257 0.0246515 1.45863 xyz
    dof rx ry rz
  end
  begin
    id 18
    name RightArm
    direction -0.99886 -0.00851186 -0.0469687
    length 10.3947
    axis -23.196 0.23503 -0.532632 xyz
    dof rx ry rz
  end
  begin
    id 19
    name RightForeArm
    direction -0.99909 0.00114866 0.0426317
    length 8.68355
    axis -9.91764 -0.134943 0.610517 xyz
    dof rx ry rz
  end
  begin
    id 20
    name RightHand
    direction -0.992888 -0.0489538 0.10852
    length 5.28593
    axis -0.00275396 -0.197403 0.246414 xyz
    dof rx ry rz
  end
  begin
    id 21
    name LeftUpLegDummy
    direction 1 -2.30186e-007 -8.31532e-007
    length 4.04083
    axis 0 0 0 xyz
  end
  begin
    id 22
    name LeftUpLeg
    direction -0.000920097 -1 2.79241e-006
    length 17.4221
    axis -3.48782 0.00143434 -0.0532288 xyz
    dof rx ry rz
  end
  begin
    id 23
    name LeftLeg
    direction -0.000920097 -1 2.7912e-006
    length 17.1239
    axis 3.68162 -0.00806512 -0.0529896 xyz
    dof rx ry rz
  end
  begin
    id 24
    name LeftFoot
    direction -2.57845e-005 -3.987e-007 1
    length 6.72091
    axis 3.02372e-005 -0.00147829 -0.214229 xyz
    dof rx ry rz
  end
  begin
    id 25
    name LeftToes
    direction 0.00813577 -0.00488255 0.999955
    length 3.85048
    axis 3.89895e-005 -0.0014783 -0.214229 xyz
    dof rx ry rz
  end
:hierarchy
  begin
    root RightUpLegDummy SpineDummy LeftUpLegDummy
    RightUpLegDummy RightUpLeg
    RightUpLeg RightLeg
    RightLeg RightFoot
    RightFoot RightToes
    SpineDummy Spine
    Spine Spine1
    Spine1 HEadDummy LeftShoulder1Dummy RightShoulderDummy
    HEadDummy HEad
    LeftShoulder1Dummy LeftShoulder1
    LeftShoulder1 LeftArm
    LeftArm LeftForeArm
    LeftForeArm LeftHand
    RightShoulderDummy RightShoulder
    RightShoulder RightArm
    RightArm RightForeArm
    RightForeArm RightHand
    LeftUpLegDummy LeftUpLeg
    LeftUpLeg LeftLeg
    LeftLeg LeftFoot
    LeftFoot LeftToes
  end

:SAMPLES-PER-SECOND 30
:FULLY-SPECIFIED
:DEGREES
43
root  -14.4785 34.5309 -14.605 -170.003 -1.82816 179.564
RightUpLeg  -11.0412 -15.9486 -1.30619
RightLeg  9.37204 -3.07089 -0.304405
RightFoot  2.21551 0.013548 0.0348082
RightToes  -24.624 -0.107543 -0.212923
Spine  -2.03524 -0.107923 0.182184
Spine1  -4.16228 -0.121396 0.871006
HEad  -59.5553 1.05978 2.19061
LeftShoulder1  -1.94126e-019 -3.10601e-018 -2.51263e-017
LeftArm  -15.1122 25.2047 -80.516
LeftForeArm  31.0748 -15.6193 -2.44421
LeftHand  -0.377201 -0.00182225 8.04567
RightShoulder  -4.96962e-017 0 -2.36833e-017
RightArm  -28.2445 -23.2558 73.1754
RightForeArm  55.8571 14.6112 1.17899
RightHand  -0.353463 -1.21825 -9.45924
LeftUpLeg  -9.13519 2.5332 3.40821
LeftLeg  6.3235 11.6825 0.534402
LeftFoot  5.60505 -0.0567735 1.25401
LeftToes  -25.3365 2.03064e-006 1.83538e-008
44
root  -14.4374 34.5301 -14.5405 -169.97 -1.89853 179.549
RightUpLeg  -11.5294 -15.4503 -1.24391
RightLeg  10.1293 -3.61495 -0.406763
RightFoot  1.85228 0.0131933 0.0398772
RightToes  -24.2827 -0.106522 -0.211228
Spine  -1.8716 -0.105714 0.142343
Spine1  -3.83734 -0.11506 0.785874
HEad  -59.6 1.31788 1.85069
LeftShoulder1  -1.94126e-019 -3.10601e-018 -2.51263e-017
LeftArm  -15.0539 24.923 -80.4496
LeftForeArm  30.8716 -15.7647 -2.45934
LeftHand  -0.378077 -0.0861716 8.02377
RightShoulder  -4.96962e-017 0 -2.36833e-017
RightArm  -28.1774 -23.0118 73.2661
RightForeArm  55.8625 14.6782 1.17024
RightHand  -0.349335 -1.27166 -9.5931
LeftUpLeg  -9.58852 2.17042 3.46722
LeftLeg  6.94767 11.9767 0.67745
LeftFoot  5.45584 -0.0567027 1.25291
LeftToes  -25.4563 2.03064e-006 1.83538e-008
45
root  -14.3893 34.5265 -14.464 -169.781 -1.93849 179.511
RightUpLeg  -12.2408 -14.8601 -1.14876
RightLeg  10.9667 -4.20973 -0.536147
RightFoot  1.4637 0.0123146 0.0524335
RightToes  -24.1571 -0.105392 -0.209351
Spine  -1.72239 -0.0807626 0.082297
Spine1  -3.54074 -0.0625922 0.659328
HEad  -59.6088 1.61715 1.43894
LeftShoulder1  -1.94126e-019 -3.10601e-018 -2.51263e-017
LeftArm  -14.9972 24.6472 -80.3476
LeftForeArm  30.7804 -16.1298 -2.50286
LeftHand  -0.377464 -0.0897211 8.03913
RightShoulder  -4.96962e-017 0 -2.36833e-017
RightArm  -28.0307 -22.7539 73.3826
RightForeArm  55.799 14.7661 1.16017
RightHand  -0.349118 -1.25731 -9.5576
LeftUpLeg  -10.2634 1.86552 3.51145
LeftLeg  7.67808 12.2331 0.84702
LeftFoot  5.25858 -0.0556559 1.23664
LeftToes  -25.456 2.03064e-006 1.83538e-008
46
root  -14.3346 34.5227 -14.3823 -169.479 -1.96825 179.483
RightUpLeg  -13.0446 -14.2048 -1.01716
RightLeg  11.7362 -4.86498 -0.68603
RightFoot  1.11988 0.0111829 0.0686046
RightToes  -23.8833 -0.104147 -0.207288
Spine  -1.56727 -0.0348695 0.0252789
Spine1  -3.23066 0.0317736 0.542088
HEad  -59.6474 1.91263 0.992647
LeftShoulder1  -1.94126e-019 -3.10601e-018 -2.51263e-017
LeftArm  -14.9651 24.3415 -80.2403
LeftForeArm  30.6379 -16.634 -2.568
LeftHand  -0.37957 -0.152807 7.94842
RightShoulder  -4.96962e-017 0 -2.36833e-017
RightArm  -27.6919 -22.4532 73.4798
RightForeArm  55.6196 14.8739 1.15007
RightHand  -0.34924 -1.2754 -9.46374
LeftUpLeg  -11.0767 1.6196 3.57453
LeftLeg  8.4442 12.4468 1.02754
LeftFoot  5.0864 -0.0546693 1.2213
LeftToes  -25.7373 2.03064e-006 1.83538e-008
47
root  -14.2761 34.5194 -14.3135 -169.139 -1.93416 179.47
RightUpLeg  -13.8645 -14.0944 -0.832255
RightLeg  12.4451 -4.93661 -0.758558
RightFoot  0.76306 0.00904862 0.0991016
RightToes  -23.5187 -0.10193 -0.204494
Spine  -1.41501 0.0504928 -0.0112613
Spine1  -2.92449 0.2047 0.468024
HEad  -59.5469 2.25568 0.342168
LeftShoulder1  -1.94126e-019 -3.10601e-018 -2.51263e-017
LeftArm  -15.0429 24.0094 -80.1878
LeftForeArm  30.4825 -17.1123 -2.64487
LeftHand  -0.378552 -0.119301 7.97974
RightShoulder  -4.96962e-017 0 -2.36833e-017
RightArm  -27.3791 -22.1299 73.5239
RightForeArm  55.6532 14.945 1.14086
RightHand  -0.342282 -1.27705 -9.56366
LeftUpLeg  -11.9723 1.75409 3.63154
LeftLeg  9.35077 12.3442 1.21443
LeftFoot  4.79684 -0.0501789 1.1515
LeftToes  -25.6985 2.03064e-006 1.83538e-008
48
root  -14.2155 34.5131 -14.2295 -168.511 -1.93755 179.468
RightUpLeg  -14.9519 -13.9806 -0.563068
RightLeg  13.058 -5.03455 -0.828844
RightFoot  0.511581 0.00751479 0.121018
RightToes  -23.5135 -0.100077 -0.202802
Spine  -1.36909 0.145401 -0.0108029
Spine1  -2.83046 0.400313 0.465784
HEad  -59.1686 2.71401 -0.627886
LeftShoulder1  -1.94126e-019 -3.10601e-018 -2.51263e-017
LeftArm  -15.2603 23.8449 -80.1743
LeftForeArm  30.2639 -17.6267 -2.72848
LeftHand  -0.377073 -0.057097 8.04202
RightShoulder  -4.96962e-017 0 -2.36833e-017
RightArm  -26.6724 -21.9729 73.4496
RightForeArm  55.3839 15.1842 1.1189
RightHand  -0.336259 -1.2952 -9.43227
LeftUpLeg  -13.2721 1.58533 3.72594
LeftLeg  10.4469 12.4954 1.46877
LeftFoot  4.4983 -0.0469955 1.10202
LeftToes  -25.7969 2.03064e-006 1.83538e-008
49
root  -14.1454 34.4982 -14.154 -167.99 -1.96001 179.537
RightUpLeg  -15.9037 -13.7954 -0.243146
RightLeg  13.6575 -5.2032 -0.912598
RightFoot  0.233072 0.00577587 0.145865
RightToes  -23.4295 -0.098415 -0.20175
Spine  -1.25492 0.255094 0.0434734
Spine1  -2.60108 0.630373 0.560822
HEad  -58.605 3.1929 -1.87569
LeftShoulder1  -1.94126e-019 -3.10601e-018 -2.51263e-017
LeftArm  -15.5111 23.6232 -80.1827
LeftForeArm  29.9528 -18.2303 -2.83569
LeftHand  -0.375989 -0.0303207 8.11962
RightShoulder  -4.96962e-017 0 -2.36833e-017
RightArm  -26.4751 -21.5525 73.3275
RightForeArm  55.4991 15.2887 1.1054
RightHand  -0.34194 -1.4755 -10.0163
LeftUpLeg  -14.6014 1.49098 3.90904
LeftLeg  11.8395 12.5598 1.78383
LeftFoot  4.05868 -0.0412031 1.01198
LeftToes  -25.8513 2.03064e-006 1.83538e-008
